<svg width="242" height="68" viewBox="0 0 242 68" fill="none" xmlns="http://www.w3.org/2000/svg">
<path d="M37.1996 4.55041C37.1996 1.5168 35.2278 0.252801 34.3177 0C33.3571 0.252801 31.4358 1.5168 31.4358 4.55041C31.4358 7.58402 33.3571 8.44355 34.3177 8.49411C35.2278 8.44355 37.1996 7.58402 37.1996 4.55041Z" fill="white"/>
<path d="M24.0197 4.27168C23.3988 3.65086 22.3923 3.65086 21.7715 4.27168C21.1506 4.8925 21.1506 5.89906 21.7715 6.51988L32.6819 17.4303V26.8397L15.3155 9.47333C14.6947 8.85251 13.6882 8.85251 13.0673 9.47333C12.4465 10.0942 12.4465 11.1007 13.0673 11.7215L32.6819 31.3361V68.9499C32.6819 69.8279 33.3936 70.5396 34.2716 70.5396C35.1496 70.5396 35.8613 69.8279 35.8613 68.9499V31.5227L55.6625 11.7215C56.2834 11.1007 56.2834 10.0942 55.6625 9.47333C55.0417 8.85251 54.0352 8.85251 53.4143 9.47333L35.8613 27.0264V17.4303L46.7717 6.51988C47.3926 5.89906 47.3926 4.8925 46.7717 4.27168C46.1509 3.65086 45.1444 3.65086 44.5235 4.27168L34.2716 14.5236L24.0197 4.27168Z" fill="white"/>
<path d="M53.2222 26.7251C53.843 27.3459 53.843 28.3524 53.2222 28.9733L45.6487 36.5467V46.1564L64.7769 27.0282C65.3977 26.4074 66.4043 26.4074 67.0251 27.0282C67.6459 27.649 67.6459 28.6556 67.0251 29.2764L45.6487 50.6528V59.8537C45.6487 60.7317 44.937 61.4435 44.059 61.4435C43.181 61.4435 42.4693 60.7317 42.4693 59.8537V35.8882C42.4693 35.4666 42.6368 35.0623 42.9349 34.7641L50.974 26.7251C51.5948 26.1042 52.6013 26.1042 53.2222 26.7251Z" fill="white"/>
<path d="M15.3227 26.7251C14.7019 27.3459 14.7019 28.3524 15.3227 28.9733L22.8961 36.5467V46.2105L3.71381 27.0282C3.09299 26.4074 2.08644 26.4074 1.46562 27.0282C0.844794 27.649 0.844794 28.6556 1.46562 29.2764L22.8961 50.7069V59.8537C22.8961 60.7317 23.6079 61.4435 24.4858 61.4435C25.3638 61.4435 26.0756 60.7317 26.0756 59.8537V35.8882C26.0756 35.4666 25.9081 35.0623 25.6099 34.7641L17.5709 26.7251C16.95 26.1042 15.9435 26.1042 15.3227 26.7251Z" fill="white"/>
<path d="M60.5873 18.966C61.0521 19.7883 61.5526 22.0764 59.4075 24.2215C57.2624 26.3665 55.2603 25.58 54.5811 24.9722C53.9375 24.2572 53.1868 22.2909 55.3318 20.1458C57.4769 18.0007 59.7293 18.4655 60.5873 18.966Z" fill="white"/>
<path d="M8.22439 24.2215C6.0793 22.0764 6.57982 19.7883 7.04459 18.966C7.90263 18.4655 10.155 18.0007 12.3001 20.1458C14.4451 22.2909 13.6944 24.2572 13.0508 24.9722C12.3716 25.58 10.3695 26.3665 8.22439 24.2215Z" fill="white"/>
<path fill-rule="evenodd" clip-rule="evenodd" d="M154.35 44.8502C155.279 45.5651 156.346 46.0901 157.487 46.3939C158.844 46.8018 160.257 47.0062 161.676 47C163.166 47.027 164.648 46.7761 166.041 46.2608C167.203 45.8466 168.224 45.1248 168.989 44.1762C169.685 43.2664 170.05 42.1561 170.027 41.0209C170.067 40.1525 169.784 39.2994 169.231 38.6184C168.709 38.0101 168.047 37.5314 167.299 37.2214C166.347 36.8387 165.372 36.5129 164.379 36.2458C163.441 35.9631 162.731 35.7294 162.244 35.5446C161.784 35.3758 161.361 35.121 161 34.7945C160.832 34.6418 160.7 34.4559 160.611 34.2492C160.523 34.0425 160.481 33.8198 160.488 33.5959C160.488 32.767 160.897 32.1039 161.715 31.6011C162.538 31.101 163.651 30.851 165.056 30.851C165.988 30.8474 166.915 30.9718 167.812 31.2206C168.656 31.4493 169.459 31.8051 170.192 32.2751L171.569 29.5573C170.691 29.0303 169.733 28.6431 168.73 28.4104C167.591 28.1315 166.42 27.9937 165.245 28C163.775 27.9818 162.316 28.2421 160.947 28.7664C159.801 29.1881 158.796 29.9092 158.041 30.851C157.345 31.7555 156.978 32.8614 157 33.9927C156.958 34.9035 157.245 35.7998 157.81 36.5257C158.331 37.1587 158.999 37.661 159.759 37.9906C160.728 38.3882 161.722 38.7267 162.734 39.0043C163.616 39.2507 164.304 39.4708 164.8 39.6647C165.259 39.8378 165.681 40.0932 166.044 40.4175C166.206 40.5629 166.335 40.7404 166.421 40.9382C166.508 41.136 166.55 41.3495 166.545 41.5644C166.545 42.3635 166.133 43.0021 165.315 43.4669C164.496 43.9343 163.392 44.1681 162.002 44.1681C160.866 44.1663 159.737 43.9827 158.662 43.6245C157.641 43.2995 156.686 42.8038 155.839 42.1596L154.35 44.8502ZM192.483 46.7527L202.504 28.2718H199.019L191.261 42.445L189.396 28.2718H186.125L178.37 42.3118L176.505 28.2718H173.014L175.503 46.7527H179.263L186.832 33.2154L188.725 46.7527H192.483ZM210.86 42.4613H201.346L198.615 46.7364H194.86L207.158 28.2555H210.643L215.348 46.7364H211.857L210.86 42.4613ZM210.212 39.7707L208.291 31.6418L203.075 39.7707H210.212ZM235 33.8324C235 32.0712 234.374 30.7033 233.121 29.7285C231.868 28.7573 230.098 28.2681 227.81 28.2609H220.511L216.728 46.7418H220.236L221.349 41.4122H225.973C227.62 41.4491 229.256 41.1385 230.769 40.5018C232.059 39.9533 233.151 39.0409 233.906 37.8818C234.659 36.6617 235.039 35.2565 235 33.8324ZM231.451 34.1476C231.451 35.5572 230.987 36.6353 230.059 37.3818H230.067C229.14 38.1301 227.824 38.5042 226.12 38.5042H221.945L223.431 31.1662H227.423C228.72 31.1662 229.717 31.419 230.41 31.919C231.103 32.4191 231.451 33.1638 231.451 34.1476Z" fill="white"/>
<path fill-rule="evenodd" clip-rule="evenodd" d="M92.3781 46.6739V44.9861H80.9986V38.1346H90.7831V36.474H80.9986V29.9024H91.9745V28.193H79V46.6739H92.3781ZM103.27 28.2011H95.5681V46.6521H103.27C105.105 46.6869 106.921 46.2839 108.559 45.478C110.041 44.743 111.277 43.6119 112.125 42.2167C112.959 40.7516 113.397 39.103 113.397 37.4266C113.397 35.7503 112.959 34.1016 112.125 32.6365C111.277 31.2419 110.04 30.111 108.559 29.3752C106.921 28.5693 105.105 28.1663 103.27 28.2011ZM107.515 44.0349C106.168 44.6972 104.673 45.0239 103.165 44.9861H97.5696V29.9024H103.165C104.674 29.8701 106.168 30.2014 107.515 30.8673C108.718 31.4709 109.721 32.3954 110.408 33.5334C111.082 34.7347 111.436 36.0825 111.436 37.4524C111.436 38.8224 111.082 40.1702 110.408 41.3715C109.72 42.508 108.718 43.4314 107.515 44.0349ZM116.379 28.2011H124.081C125.915 28.1655 127.731 28.5686 129.37 29.3752C130.852 30.1102 132.089 31.2412 132.938 32.6365C133.773 34.1016 134.211 35.7503 134.211 37.4266C134.211 39.103 133.773 40.7516 132.938 42.2167C132.09 43.6127 130.852 44.7439 129.37 45.478C127.731 46.2846 125.915 46.6877 124.081 46.6521H116.379V28.2011ZM123.972 44.9861C125.483 45.0247 126.979 44.6979 128.329 44.0349C129.53 43.4306 130.533 42.5074 131.221 41.3715C131.895 40.1702 132.249 38.8224 132.249 37.4524C132.249 36.0825 131.895 34.7347 131.221 33.5334C130.534 32.3961 129.531 31.4718 128.329 30.8673C126.981 30.201 125.485 29.8696 123.975 29.9024H118.38V44.9861H123.972ZM138.247 41.7411H148.788L151.06 46.6739H153.167L144.518 28.193H142.545L133.896 46.6739H135.978L138.247 41.7411ZM143.519 30.234L148.059 40.1566H138.979L143.519 30.234Z" fill="white"/>
</svg>
