<svg width="242" height="256" viewBox="0 0 242 256" fill="none" xmlns="http://www.w3.org/2000/svg">
<path fill-rule="evenodd" clip-rule="evenodd" d="M120.915 0C124.218 0.917456 131.374 5.50474 131.374 16.5142C131.374 27.5237 124.218 30.643 120.915 30.8265C117.429 30.643 110.456 27.5237 110.456 16.5142C110.456 5.50474 117.429 0.917456 120.915 0ZM75.3831 15.5027C77.6362 13.2496 81.2891 13.2496 83.5422 15.5027L120.748 52.7086L157.954 15.5027C160.207 13.2496 163.86 13.2496 166.113 15.5027C168.366 17.7557 168.366 21.4086 166.113 23.6617L126.518 63.2574V98.0831L190.22 34.3803C192.473 32.1272 196.126 32.1272 198.379 34.3803C200.632 36.6333 200.632 40.2863 198.379 42.5393L126.518 114.401V250.231C126.518 253.417 123.934 256 120.748 256C117.562 256 114.979 253.417 114.979 250.231V113.724L43.7944 42.5393C41.5413 40.2863 41.5413 36.6333 43.7944 34.3803C46.0474 32.1272 49.7004 32.1272 51.9534 34.3803L114.979 97.4057V63.2574L75.3831 23.6617C73.1301 21.4086 73.1301 17.7557 75.3831 15.5027ZM189.523 105.149C191.776 102.896 191.776 99.2427 189.523 96.9897C187.27 94.7366 183.617 94.7366 181.364 96.9897L152.189 126.165C151.107 127.247 150.499 128.714 150.499 130.244V217.219C150.499 220.405 153.082 222.988 156.268 222.988C159.455 222.988 162.038 220.405 162.038 217.219V183.827L239.616 106.249C241.869 103.996 241.869 100.343 239.616 98.0898C237.363 95.8368 233.71 95.8368 231.457 98.0898L162.038 167.509V132.634L189.523 105.149ZM51.9794 105.149C49.7263 102.896 49.7263 99.2427 51.9794 96.9897C54.2324 94.7366 57.8854 94.7366 60.1384 96.9897L89.3135 126.165C90.3955 127.247 91.0033 128.714 91.0033 130.244V217.219C91.0033 220.405 88.4203 222.988 85.234 222.988C82.0477 222.988 79.4647 220.405 79.4647 217.219V184.024L1.6898 106.249C-0.563267 103.996 -0.563267 100.343 1.6898 98.0898C3.94286 95.8368 7.5958 95.8368 9.84886 98.0898L79.4647 167.706V132.634L51.9794 105.149ZM211.971 87.9037C219.755 80.1188 217.939 71.815 216.252 68.8308C213.138 67.0143 204.964 65.3276 197.179 73.1124C189.394 80.8973 192.119 88.0334 194.455 90.6284C196.92 92.8341 204.186 95.6886 211.971 87.9037ZM21.9368 68.8308C20.2501 71.815 18.4336 80.1188 26.2185 87.9037C34.0034 95.6886 41.2693 92.8341 43.7345 90.6284C46.0699 88.0334 48.7946 80.8973 41.0098 73.1124C33.2249 65.3276 25.0508 67.0143 21.9368 68.8308Z" fill="#870FE5"/>
</svg>
