<?xml version="1.0" encoding="utf-8"?>
<!-- Generator: Adobe Illustrator 25.3.1, SVG Export Plug-In . SVG Version: 6.00 Build 0)  -->
<svg version="1.1" id="Layer_1" xmlns="http://www.w3.org/2000/svg" xmlns:xlink="http://www.w3.org/1999/xlink" x="0px" y="0px"
	 viewBox="0 0 246.1 68" style="enable-background:new 0 0 246.1 68;" xml:space="preserve">
<style type="text/css">
	.st0{fill:#FFFFFF;}
	.st1{fill-rule:evenodd;clip-rule:evenodd;fill:#FFFFFF;}
</style>
<g>
	<path class="st0" d="M34.9,4.4c0-2.9-1.9-4.1-2.8-4.4c-0.9,0.2-2.8,1.5-2.8,4.4s1.9,3.8,2.8,3.8C33,8.1,34.9,7.3,34.9,4.4z"/>
	<path class="st0" d="M22.2,4.1c-0.6-0.6-1.6-0.6-2.2,0c-0.6,0.6-0.6,1.6,0,2.2l10.5,10.5v9.1L13.8,9.1c-0.6-0.6-1.6-0.6-2.2,0
		c-0.6,0.6-0.6,1.6,0,2.2l18.9,18.9v36.3c0,0.8,0.7,1.5,1.5,1.5s1.5-0.7,1.5-1.5V30.4l19.1-19.1c0.6-0.6,0.6-1.6,0-2.2
		c-0.6-0.6-1.6-0.6-2.2,0L33.6,26.1v-9.3L44.1,6.3c0.6-0.6,0.6-1.6,0-2.2c-0.6-0.6-1.6-0.6-2.2,0L32.1,14L22.2,4.1z"/>
	<path class="st0" d="M50.3,25.8c0.6,0.6,0.6,1.6,0,2.2L43,35.2v9.3l18.4-18.4c0.6-0.6,1.6-0.6,2.2,0c0.6,0.6,0.6,1.6,0,2.2L43,48.8
		v8.9c0,0.8-0.7,1.5-1.5,1.5S40,58.5,40,57.7V34.6c0-0.4,0.2-0.8,0.4-1.1l7.7-7.7C48.8,25.2,49.7,25.2,50.3,25.8z"/>
	<path class="st0" d="M13.8,25.8c-0.6,0.6-0.6,1.6,0,2.2l7.3,7.3v9.3L2.6,26.1c-0.6-0.6-1.6-0.6-2.2,0c-0.6,0.6-0.6,1.6,0,2.2
		l20.7,20.7v8.8c0,0.8,0.7,1.5,1.5,1.5c0.8,0,1.5-0.7,1.5-1.5V34.6c0-0.4-0.2-0.8-0.4-1.1L16,25.8C15.4,25.2,14.4,25.2,13.8,25.8z"
		/>
	<path class="st0" d="M57.4,18.3c0.4,0.8,0.9,3-1.1,5.1c-2.1,2.1-4,1.3-4.7,0.7c-0.6-0.7-1.3-2.6,0.7-4.7
		C54.4,17.4,56.6,17.8,57.4,18.3z"/>
	<path class="st0" d="M7,23.3c-2.1-2.1-1.6-4.3-1.1-5.1c0.8-0.5,3-0.9,5.1,1.1c2.1,2.1,1.3,4,0.7,4.7C11,24.7,9,25.4,7,23.3z"/>
	<path class="st1" d="M147.8,43.2c0.9,0.7,1.9,1.2,3,1.5c1.3,0.4,2.7,0.6,4,0.6c1.4,0,2.9-0.2,4.2-0.7c1.1-0.4,2.1-1.1,2.8-2
		c0.7-0.9,1-1.9,1-3c0-0.8-0.2-1.7-0.8-2.3c-0.5-0.6-1.1-1-1.9-1.3c-0.9-0.4-1.9-0.7-2.8-0.9c-0.9-0.3-1.6-0.5-2.1-0.7
		c-0.4-0.2-0.9-0.4-1.2-0.7c-0.2-0.1-0.3-0.3-0.4-0.5c-0.1-0.2-0.1-0.4-0.1-0.6c0-0.8,0.4-1.4,1.2-1.9c0.8-0.5,1.9-0.7,3.2-0.7
		c0.9,0,1.8,0.1,2.7,0.4c0.8,0.2,1.6,0.6,2.3,1l1.3-2.6c-0.8-0.5-1.8-0.9-2.7-1.1c-1.1-0.3-2.2-0.4-3.4-0.4c-1.4,0-2.8,0.2-4.1,0.7
		c-1.1,0.4-2.1,1.1-2.8,2c-0.7,0.9-1,1.9-1,3c0,0.9,0.2,1.7,0.8,2.4c0.5,0.6,1.1,1.1,1.9,1.4c0.9,0.4,1.9,0.7,2.9,1
		c0.9,0.2,1.5,0.4,2,0.6c0.4,0.2,0.8,0.4,1.2,0.7c0.2,0.1,0.3,0.3,0.4,0.5c0.1,0.2,0.1,0.4,0.1,0.6c0,0.8-0.4,1.4-1.2,1.8
		c-0.8,0.5-1.9,0.7-3.2,0.7c-1.1,0-2.2-0.2-3.2-0.5c-1-0.3-1.9-0.8-2.7-1.4L147.8,43.2z M184.6,45.1l9.7-17.8h-3.4l-7.5,13.7
		l-1.8-13.7h-3.2L171,40.8l-1.8-13.5h-3.4l2.4,17.8h3.6l7.3-13l1.8,13H184.6z M202.3,40.9h-9.2l-2.6,4.1h-3.6l11.9-17.8h3.4
		l4.5,17.8h-3.4L202.3,40.9z M201.7,38.3l-1.9-7.8l-5,7.8H201.7z M225.6,32.6c0-1.7-0.6-3-1.8-4c-1.2-0.9-2.9-1.4-5.1-1.4h-7
		L208,45.1h3.4l1.1-5.1h4.5c1.6,0,3.2-0.3,4.6-0.9c1.2-0.5,2.3-1.4,3-2.5C225.2,35.3,225.6,34,225.6,32.6z M222.2,32.9
		c0,1.4-0.4,2.4-1.3,3.1h0c-0.9,0.7-2.2,1.1-3.8,1.1h-4l1.4-7.1h3.8c1.3,0,2.2,0.2,2.9,0.7C221.8,31.3,222.2,32,222.2,32.9z"/>
	<path class="st1" d="M88.1,45v-1.6h-11v-6.6h9.4v-1.6h-9.4v-6.3h10.6v-1.6H75.2V45H88.1z M98.6,27.2h-7.4V45h7.4
		c1.8,0,3.5-0.4,5.1-1.1c1.4-0.7,2.6-1.8,3.4-3.1c0.8-1.4,1.2-3,1.2-4.6c0-1.6-0.4-3.2-1.2-4.6c-0.8-1.3-2-2.4-3.4-3.1
		C102.1,27.5,100.4,27.2,98.6,27.2z M102.7,42.4c-1.3,0.6-2.7,1-4.2,0.9h-5.4V28.8h5.4c1.5,0,2.9,0.3,4.2,0.9
		c1.2,0.6,2.1,1.5,2.8,2.6c0.6,1.2,1,2.5,1,3.8c0,1.3-0.3,2.6-1,3.8C104.8,41,103.8,41.9,102.7,42.4z M111.2,27.2h7.4
		c1.8,0,3.5,0.4,5.1,1.1c1.4,0.7,2.6,1.8,3.4,3.1c0.8,1.4,1.2,3,1.2,4.6c0,1.6-0.4,3.2-1.2,4.6c-0.8,1.3-2,2.4-3.4,3.1
		c-1.6,0.8-3.3,1.2-5.1,1.1h-7.4V27.2z M118.5,43.4c1.5,0,2.9-0.3,4.2-0.9c1.2-0.6,2.1-1.5,2.8-2.6c0.6-1.2,1-2.5,1-3.8
		c0-1.3-0.3-2.6-1-3.8c-0.7-1.1-1.6-2-2.8-2.6c-1.3-0.6-2.7-1-4.2-0.9h-5.4v14.5H118.5z M132.3,40.2h10.2l2.2,4.8h2l-8.3-17.8h-1.9
		L128.1,45h2L132.3,40.2z M137.4,29.1l4.4,9.6H133L137.4,29.1z"/>
	<g>
		<path class="st0" d="M231.5,25.6h-2.6v-1.5h7.1v1.5h-2.6v6.6h-1.9V25.6z"/>
		<path class="st0" d="M244.3,32.2l0-4.9l-2.4,4h-0.8l-2.4-3.9v4.8H237v-8.1h1.5l3,5l3-5h1.5l0,8.1H244.3z"/>
	</g>
</g>
</svg>
