<svg id="Layer_1" data-name="Layer 1" xmlns="http://www.w3.org/2000/svg" viewBox="0 0 560.42 69.91"><defs><style>.cls-1{fill:#282828;}.cls-2{fill:#7419a5;}</style></defs><path class="cls-1" d="M550.68,562.68A31.67,31.67,0,0,1,539.41,557l5.35-9.9a33.31,33.31,0,0,0,10.14,5.39,37.36,37.36,0,0,0,12,2q7.49,0,11.9-2.58c2.94-1.71,4.42-4.06,4.42-7a5.56,5.56,0,0,0-1.8-4.22,14.2,14.2,0,0,0-4.47-2.77q-2.67-1.07-7.42-2.43a91.43,91.43,0,0,1-10.69-3.73,18.73,18.73,0,0,1-7-5.39,14.35,14.35,0,0,1-2.91-9.32,18.66,18.66,0,0,1,3.74-11.56,24,24,0,0,1,10.44-7.67A40.84,40.84,0,0,1,578.55,495a50.35,50.35,0,0,1,12.52,1.51,34.88,34.88,0,0,1,10.2,4.22l-4.95,10a30.32,30.32,0,0,0-8.55-3.88,35.7,35.7,0,0,0-9.9-1.36q-7.57,0-12,2.76c-2.94,1.85-4.41,4.29-4.41,7.34A5.79,5.79,0,0,0,563.3,520a13.61,13.61,0,0,0,4.47,2.76c1.75.68,4.3,1.54,7.67,2.58a91.21,91.21,0,0,1,10.49,3.59,18.46,18.46,0,0,1,6.94,5.14,13.27,13.27,0,0,1,2.86,8.84A18.79,18.79,0,0,1,592,554.52a23.93,23.93,0,0,1-10.59,7.67,42.07,42.07,0,0,1-15.68,2.72A50.39,50.39,0,0,1,550.68,562.68Z" transform="translate(-268.72 -495)"/><path class="cls-1" d="M712.4,496l-36,68h-13.5l-6.8-49.81-27.19,49.81H615.4l-8.94-68H619l6.7,51.66L653.56,496h11.75l6.7,52.15L699.88,496Z" transform="translate(-268.72 -495)"/><path class="cls-1" d="M742.42,548.21H708.24l-9.81,15.73H684.94l44.18-68h12.52l16.9,68H746Zm-2.33-9.9-6.9-29.91-18.74,29.91Z" transform="translate(-268.72 -495)"/><path class="cls-1" d="M822.39,501.36q6.75,5.38,6.75,15.1a27.44,27.44,0,0,1-3.93,14.9A25.35,25.35,0,0,1,813.94,541a41.15,41.15,0,0,1-17.23,3.35H780.1l-4,19.61H763.5l13.59-68h26.22Q815.64,496,822.39,501.36Zm-11,28.16q5-4.12,5-11.9c0-3.62-1.25-6.36-3.74-8.2s-6.07-2.77-10.73-2.77H787.58l-5.34,27h15Q806.42,533.65,811.42,529.52Z" transform="translate(-268.72 -495)"/><path class="cls-2" d="M316.78,557.5v6.21H268.72v-68h46.61V502H275.9v24.18h35.15v6.11H275.9V557.5Z" transform="translate(-268.72 -495)"/><path class="cls-2" d="M328.24,495.74h27.67a40.49,40.49,0,0,1,19,4.32,31.54,31.54,0,0,1,12.81,12,36.27,36.27,0,0,1,0,35.25,31.48,31.48,0,0,1-12.81,12,40.49,40.49,0,0,1-19,4.32H328.24Zm27.29,61.76A32.89,32.89,0,0,0,371.16,554a25.73,25.73,0,0,0,10.39-9.8,30,30,0,0,0,0-28.84,25.68,25.68,0,0,0-10.39-9.81A33,33,0,0,0,355.53,502h-20.1V557.5Z" transform="translate(-268.72 -495)"/><path class="cls-2" d="M403,495.74h27.67a40.42,40.42,0,0,1,19,4.32,31.51,31.51,0,0,1,12.82,12,36.27,36.27,0,0,1,0,35.25,31.44,31.44,0,0,1-12.82,12,40.42,40.42,0,0,1-19,4.32H403Zm27.28,61.76A32.9,32.9,0,0,0,445.93,554a25.79,25.79,0,0,0,10.39-9.8,30,30,0,0,0,0-28.84,25.75,25.75,0,0,0-10.39-9.81A33,33,0,0,0,430.29,502h-20.1V557.5Z" transform="translate(-268.72 -495)"/><path class="cls-2" d="M519.43,545.56H481.56l-8.15,18.15h-7.48l31.07-68h7.09l31.07,68h-7.57Zm-2.62-5.83L500.5,503.22l-16.31,36.51Z" transform="translate(-268.72 -495)"/></svg>